<svg xmlns="http://www.w3.org/2000/svg" width="278" height="62.944" viewBox="0 0 278 62.944">
    <defs>
        <style>
            .cls-1{fill:#fff}.cls-2{fill:#f80}
        </style>
    </defs>
    <g id="Logo_RD" transform="translate(-827 -2748)">
        <path id="Контур_2" d="M157.212 1004.288a4.759 4.759 0 0 1-4.932 4.888h-2.88V999.4h2.881a4.758 4.758 0 0 1 4.931 4.888zm-.48 0a4.322 4.322 0 0 0-4.5-4.452h-2.4v8.9h2.4a4.322 4.322 0 0 0 4.5-4.448z" class="cls-1" transform="translate(677.644 1798.93)"/>
        <path id="Контур_3" d="M183.263 1008.315h-7.027a3.315 3.315 0 0 0 3.317 3.317 3.359 3.359 0 0 0 3.012-1.833h.48a3.707 3.707 0 0 1-3.448 2.313 3.8 3.8 0 0 1-3.8-3.928 3.74 3.74 0 0 1 3.8-3.884 3.684 3.684 0 0 1 3.71 3.841.263.263 0 0 0-.044.174zm-3.71-3.622a3.288 3.288 0 0 0-3.317 3.186h6.59a3.249 3.249 0 0 0-3.273-3.186z" class="cls-1" transform="translate(662.766 1796.169)"/>
        <path id="Контур_4" d="M207.158 1004.6l-3.361 7.551h-.397l-3.4-7.551h.48l3.142 6.9 3.055-6.9z" class="cls-1" transform="translate(649.128 1796)"/>
        <path id="Контур_5" d="M231.063 1008.315h-7.027a3.315 3.315 0 0 0 3.317 3.317 3.359 3.359 0 0 0 3.012-1.833h.48a3.707 3.707 0 0 1-3.448 2.313 3.8 3.8 0 0 1-3.8-3.928 3.74 3.74 0 0 1 3.8-3.884 3.684 3.684 0 0 1 3.71 3.841.263.263 0 0 0-.044.174zm-3.71-3.622a3.288 3.288 0 0 0-3.317 3.186h6.59a3.249 3.249 0 0 0-3.273-3.186z" class="cls-1" transform="translate(635.828 1796.169)"/>
        <path id="Контур_6" d="M250.4 998.5h.436v10.213h-.436z" class="cls-1" transform="translate(620.725 1799.437)"/>
        <path id="Контур_7" d="M261.3 1008.128a3.928 3.928 0 1 1 3.928 3.928 3.885 3.885 0 0 1-3.928-3.928zm7.376 0a3.448 3.448 0 1 0-3.448 3.492 3.385 3.385 0 0 0 3.448-3.492z" class="cls-1" transform="translate(614.619 1796.225)"/>
        <path id="Контур_8" d="M293.041 1004.2a3.929 3.929 0 0 1 0 7.856 3.709 3.709 0 0 1-3.4-2.095v4.626h-.441v-10.169h.349l.087 1.964a3.643 3.643 0 0 1 3.4-2.182zm3.4 3.928a3.405 3.405 0 1 0-6.809 0 3.405 3.405 0 1 0 6.809 0z" class="cls-1" transform="translate(595.927 1796.225)"/>
        <path id="Контур_9" d="M327.449 1006.955v4.757h-.436v-4.67c0-1.571-.829-2.619-2.139-2.619a2.59 2.59 0 0 0-2.531 2.837v4.408h-.436V1007c0-1.615-.829-2.619-2.139-2.619a2.59 2.59 0 0 0-2.531 2.837v4.408h-.437v-7.551h.349l.087 1.528a2.819 2.819 0 0 1 2.619-1.7 2.39 2.39 0 0 1 2.4 1.921 2.832 2.832 0 0 1 2.75-1.921 2.784 2.784 0 0 1 2.444 3.052z" class="cls-1" transform="translate(579.758 1796.394)"/>
        <path id="Контур_10" d="M358.263 1008.315h-7.027a3.315 3.315 0 0 0 3.317 3.317 3.359 3.359 0 0 0 3.012-1.833h.48a3.707 3.707 0 0 1-3.448 2.313 3.8 3.8 0 0 1-3.8-3.928 3.74 3.74 0 0 1 3.8-3.884 3.684 3.684 0 0 1 3.71 3.841c0 .043-.044.131-.044.174zm-3.666-3.622a3.288 3.288 0 0 0-3.317 3.186h6.59a3.277 3.277 0 0 0-3.273-3.186z" class="cls-1" transform="translate(559.924 1796.169)"/>
        <path id="Контур_11" d="M384.085 1007.485v4.452h-.436v-4.365c0-1.789-.96-2.88-2.575-2.88a2.9 2.9 0 0 0-2.837 2.88v4.408h-.437v-7.551h.349l.087 1.746a3.313 3.313 0 0 1 2.968-1.877c1.746-.043 2.881 1.223 2.881 3.187z" class="cls-1" transform="translate(544.163 1796.17)"/>
        <path id="Контур_12" d="M405.219 1008.74v.436h-1a2.121 2.121 0 0 1-2.27-2.313v-4.845H400.2v-.393h1.746V999.4h.436v2.226h2.75v.393h-2.75v4.8a1.689 1.689 0 0 0 1.833 1.877h1z" class="cls-1" transform="translate(531.095 1798.93)"/>
        <path id="Контур_13" d="M450.212 1004.288a4.759 4.759 0 0 1-4.932 4.888h-2.88V999.4h2.881a4.734 4.734 0 0 1 4.931 4.888zm-.436 0a4.322 4.322 0 0 0-4.5-4.452h-2.4v8.9h2.4a4.347 4.347 0 0 0 4.5-4.448z" class="cls-1" transform="translate(506.377 1798.93)"/>
        <path id="Контур_14" d="M476.363 1008.259h-7.027a3.331 3.331 0 0 0 6.329 1.44h.48a3.708 3.708 0 0 1-3.448 2.313 3.8 3.8 0 0 1-3.8-3.928 3.74 3.74 0 0 1 3.8-3.884 3.684 3.684 0 0 1 3.71 3.841.474.474 0 0 0-.044.218zm-3.71-3.622a3.288 3.288 0 0 0-3.317 3.186h6.59a3.249 3.249 0 0 0-3.273-3.186z" class="cls-1" transform="translate(490.895 1796.225)"/>
        <path id="Контур_15" d="M494.1 1009.887h.436c.131 1.135 1 1.789 2.444 1.789s2.4-.7 2.4-1.7c0-1.309-1.222-1.528-2.488-1.746-1.309-.218-2.662-.437-2.662-1.92 0-1.178 1.091-2.008 2.662-2.008 1.615 0 2.619.786 2.706 2.095h-.436c-.087-1.047-.917-1.7-2.27-1.7s-2.226.655-2.226 1.571c0 1.135 1.091 1.309 2.313 1.528 1.309.218 2.793.48 2.793 2.139 0 1.309-1.135 2.139-2.837 2.139-1.657-.005-2.704-.834-2.835-2.187z" class="cls-1" transform="translate(476.212 1796.169)"/>
        <path id="Контур_16" d="M516.8 998.9h.655v.786h-.655zm.087 2.488h.436v7.551h-.436z" class="cls-1" transform="translate(463.079 1799.212)"/>
        <path id="Контур_17" d="M535.332 1004.431v6.416c0 2.444-1.353 3.928-3.579 3.928a3.214 3.214 0 0 1-3.317-2.313h.436a2.87 2.87 0 0 0 2.881 1.877c1.92 0 3.142-1.266 3.142-3.448v-1.135a3.656 3.656 0 0 1-6.9-1.746 3.643 3.643 0 0 1 3.666-3.71 3.552 3.552 0 0 1 3.273 2.051l.044-1.877h.349zm-.436 3.535a3.143 3.143 0 0 0-3.186-3.273 3.274 3.274 0 0 0 0 6.547 3.144 3.144 0 0 0 3.19-3.274z" class="cls-1" transform="translate(456.356 1796.169)"/>
        <path id="Контур_18" d="M562.585 1007.485v4.452h-.436v-4.365c0-1.789-.96-2.88-2.575-2.88a2.9 2.9 0 0 0-2.837 2.88v4.408h-.437v-7.551h.349l.087 1.746a3.313 3.313 0 0 1 2.968-1.877c1.746-.043 2.881 1.223 2.881 3.187z" class="cls-1" transform="translate(439.846 1796.17)"/>
        <path id="Контур_19" d="M608.929 1002.368a2.9 2.9 0 0 1-3.055 2.924h-2.837v3.885h-.437V999.4h3.273a2.938 2.938 0 0 1 3.056 2.968zm-.436 0a2.518 2.518 0 0 0-2.619-2.488h-2.794v4.976h2.793a2.518 2.518 0 0 0 2.619-2.488z" class="cls-1" transform="translate(412.787 1798.93)"/>
        <path id="Контур_20" d="M630.31 1004.444v.437h-.655a2.643 2.643 0 0 0-2.619 2.88v4.234h-.436v-7.551h.349l.087 1.7a2.83 2.83 0 0 1 2.662-1.746h.611z" class="cls-1" transform="translate(398.852 1796.112)"/>
        <path id="Контур_21" d="M641.5 1008.128a3.928 3.928 0 1 1 3.928 3.928 3.832 3.832 0 0 1-3.928-3.928zm7.376 0a3.448 3.448 0 1 0-3.448 3.492 3.437 3.437 0 0 0 3.448-3.492z" class="cls-1" transform="translate(389.998 1796.225)"/>
        <path id="Контур_22" d="M675.482 998.444v10.169h-.393l-.044-1.92a3.672 3.672 0 0 1-3.4 2.051 3.929 3.929 0 0 1 0-7.856 3.672 3.672 0 0 1 3.4 2.051V998.4h.436zm-.436 6.416a3.405 3.405 0 1 0-6.809 0 3.405 3.405 0 1 0 6.809 0z" class="cls-1" transform="translate(374.632 1799.494)"/>
        <path id="Контур_23" d="M696.4 1008.964v-4.364h.436v4.321a2.714 2.714 0 1 0 5.412 0v-4.321h.437v4.365a3.147 3.147 0 1 1-6.285 0z" class="cls-1" transform="translate(355.745 1796)"/>
        <path id="Контур_24" d="M720.5 1008.128a3.822 3.822 0 0 1 3.885-3.928 3.634 3.634 0 0 1 3.492 2.357h-.436a3.175 3.175 0 0 0-3.055-1.92 3.349 3.349 0 0 0-3.4 3.491 3.4 3.4 0 0 0 3.4 3.492 3.231 3.231 0 0 0 3.055-1.964h.48a3.652 3.652 0 0 1-3.535 2.4 3.875 3.875 0 0 1-3.886-3.928z" class="cls-1" transform="translate(342.164 1796.225)"/>
        <path id="Контур_25" d="M749.119 1008.8v.436h-1a2.109 2.109 0 0 1-2.27-2.27v-4.845H744.1v-.393h1.746V999.5h.436v2.226h2.75v.393h-2.75v4.8a1.689 1.689 0 0 0 1.833 1.877z" class="cls-1" transform="translate(328.864 1798.874)"/>
        <path id="Контур_26" d="M764.1 998.9h.655v.786h-.655zm.087 2.488h.436v7.551h-.436z" class="cls-1" transform="translate(317.593 1799.212)"/>
        <path id="Контур_34" d="M374.162 907.724v8.118h-6.372c-5.936 0-9.558-3.622-9.558-9.6v-10.128H353.3v-2.182l12.046-12.832h1.92v7.856h6.765v7.114h-6.5v8.555a2.866 2.866 0 0 0 3.1 3.1z" class="cls-2" transform="translate(558.252 1868.733)"/>
        <path id="Контур_33" d="M307.672 925.731c-7.332 0-11.784-3.884-11.872-9.689h8.9c0 1.964 1.353 2.881 3.142 2.881 1.353 0 2.619-.7 2.619-2.095 0-1.571-2.051-2.008-4.626-2.4-4.146-.655-9.689-1.92-9.689-8.467 0-5.368 4.583-8.86 11.479-8.86 6.852 0 11.26 3.623 11.391 9.078h-8.685c0-1.7-1.135-2.531-2.837-2.531-1.484 0-2.488.742-2.488 1.964 0 1.528 2.051 1.877 4.626 2.357 4.234.742 9.907 1.659 9.907 8.467 0 5.63-4.714 9.3-11.871 9.3z" class="cls-2" transform="translate(591.885 1859.717)"/>
        <path id="Контур_32" d="M220.4 911.416c0-8.336 6.285-14.316 15.058-14.316 8.729 0 15.058 5.979 15.058 14.316 0 8.293-6.329 14.316-15.058 14.316-8.773-.001-15.058-6.024-15.058-14.316zm20.862 0a5.809 5.809 0 1 0-5.8 6.023 5.674 5.674 0 0 0 5.8-6.023z" class="cls-2" transform="translate(637.632 1859.717)"/>
        <path id="Контур_27" d="M775.2 1008.128a3.928 3.928 0 1 1 3.928 3.928 3.885 3.885 0 0 1-3.928-3.928zm7.376 0a3.448 3.448 0 1 0-3.448 3.492 3.437 3.437 0 0 0 3.448-3.492z" class="cls-1" transform="translate(311.338 1796.225)"/>
        <path id="Контур_28" d="M809.385 1007.485v4.452h-.436v-4.365c0-1.789-.96-2.88-2.575-2.88a2.9 2.9 0 0 0-2.837 2.88v4.408h-.437v-7.551h.349l.087 1.746a3.314 3.314 0 0 1 2.968-1.877c1.746-.043 2.881 1.223 2.881 3.187z" class="cls-1" transform="translate(295.615 1796.17)"/>
        <path id="Контур_38" d="M796.3 884.843v28.631h9.253V876.9h-1.266z" class="cls-2" transform="translate(299.447 1871.1)"/>
        <path id="Контур_37" d="M744.059 897.929v26.885H736.9l-.786-1.92a12.623 12.623 0 0 1-8.114 2.794c-8.205 0-14.1-5.979-14.1-14.359 0-8.336 5.892-14.228 14.1-14.228a12.687 12.687 0 0 1 8.205 2.88l.96-2.095h6.9zm-8.816 13.486a6.024 6.024 0 1 0-6.023 6.11 5.9 5.9 0 0 0 6.023-6.109z" class="cls-2" transform="translate(345.883 1859.717)"/>
        <path id="Контур_36" d="M681.163 907.724v8.118h-6.373c-5.936 0-9.558-3.622-9.558-9.6v-10.128H660.3v-2.182l12.046-12.832h1.92v7.856h6.765v7.114h-6.5v8.555a2.866 2.866 0 0 0 3.1 3.1z" class="cls-2" transform="translate(378.494 1868.733)"/>
        <path id="Прямоугольник_19" d="M0 0H9.253V26.885H0z" class="cls-2" transform="translate(1027.501 2757.689)"/>
        <path id="Контур_39" d="M576.583 898.029h-2.095l-1.178 2.27a12.866 12.866 0 0 0-8.467-3.1A13.173 13.173 0 0 0 551.4 910.73a13.656 13.656 0 0 0 3.361 9.166 12.92 12.92 0 0 0 6.416 3.884 14.557 14.557 0 0 0 3.666.48 13.334 13.334 0 0 0 7.027-2.008v.786c0 3.186-2.488 5.15-5.587 5.15-2.27 0-4.539-.96-5.194-2.75h-1.571l-5.106 5.107c2.488 3.23 6.678 5.106 11.959 5.106 8.86 0 14.4-5.237 14.4-13.661v-23.873zm-7.769 18.026a5.715 5.715 0 0 1-2.444.524 5.488 5.488 0 0 1-5.15-3.186 6.01 6.01 0 0 1-.567-2.706 5.583 5.583 0 0 1 5.717-5.848 5.6 5.6 0 0 1 5.718 5.848 6.814 6.814 0 0 1-.567 2.706 5.534 5.534 0 0 1-2.706 2.662z" class="cls-2" transform="translate(441.971 1859.66)"/>
        <path id="Прямоугольник_18" d="M0 0H9.253V26.885H0z" class="cls-2" transform="translate(981.145 2757.689)"/>
        <path id="Контур_31" d="M162.394 905.08H158.9v10.649h-9.6V880.9h15.1c7.507 0 12.963 5.063 12.963 12.352a11.112 11.112 0 0 1-5.543 9.82l6.94 12.657h-10.693zm-3.492-8.118h4.365c2.662 0 4.234-1.615 4.234-3.8s-1.528-3.753-4.234-3.753H158.9z" class="cls-2" transform="translate(677.7 1868.846)"/>
        <path id="Контур_35" d="M468.879 898.271c0 10.169-7.463 17.458-17.982 17.458H436.8V880.9h14.1c10.56-.044 17.979 7.2 17.979 17.371zm-9.82 0c0-5.15-3.448-8.6-8.6-8.6h-4.015v17.284h4.015c5.152-.043 8.6-3.534 8.6-8.684z" class="cls-2" transform="translate(509.087 1868.846)"/>
    </g>
</svg>
