<?xml version="1.0" encoding="utf-8"?>
<!-- Generator: Adobe Illustrator 23.1.0, SVG Export Plug-In . SVG Version: 6.00 Build 0)  -->
<svg version="1.1" id="Слой_1" xmlns="http://www.w3.org/2000/svg" xmlns:xlink="http://www.w3.org/1999/xlink" x="0px" y="0px"
	 viewBox="0 0 23 35" style="enable-background:new 0 0 23 35;" xml:space="preserve">
<style type="text/css">
	.st0{fill:#FFFFFF;}
	.st1{fill:#FE6A00;}
</style>
<path class="st0" d="M8.9,1L8.9,1L8.9,1z"/>
<polygon class="st0" points="6.8,0.1 6.8,0.1 6.8,0.1 "/>
<path class="st0" d="M22.9,16.3C22.9,16.3,22.9,16.4,22.9,16.3C22.9,16.4,22.9,16.3,22.9,16.3z"/>
<path class="st0" d="M22.6,15.2L22.6,15.2L22.6,15.2z"/>
<path class="st0" d="M22,14.2L22,14.2L22,14.2z"/>
<path class="st0" d="M7.9,0.4L7.9,0.4L7.9,0.4z"/>
<polygon class="st0" points="21.2,13.2 21.2,13.2 21.2,13.2 9.9,1.8 9.9,1.8 9.9,1.8 "/>
<path class="st0" d="M22,20.7L22,20.7L22,20.7z"/>
<path class="st0" d="M22.9,18.5C22.9,18.5,22.9,18.6,22.9,18.5C22.9,18.6,22.9,18.5,22.9,18.5z"/>
<path class="st0" d="M5.6,34.9c1.4,0,2.7-0.5,3.8-1.4c-0.2,0.2-0.5,0.4-0.7,0.5C7.7,34.6,6.7,34.9,5.6,34.9z"/>
<polygon class="st0" points="21.3,21.7 21.2,21.7 16.3,26.7 21.2,21.7 "/>
<path class="st0" d="M22.9,18.5c0.1-0.4,0.1-0.8,0.1-1.1c0-0.4,0-0.8-0.1-1.1C23,17.1,23,17.8,22.9,18.5z"/>
<path class="st0" d="M22.6,15.2c0.1,0.4,0.3,0.7,0.3,1.1C22.8,16,22.7,15.6,22.6,15.2z"/>
<path class="st0" d="M22,20.7c-0.2,0.3-0.5,0.6-0.8,0.9C21.5,21.4,21.8,21.1,22,20.7z"/>
<path class="st0" d="M22.9,18.6c-0.1,0.8-0.4,1.5-0.9,2.2C22.4,20.1,22.7,19.3,22.9,18.6z"/>
<path class="st0" d="M8.9,1c0.3,0.2,0.6,0.5,0.9,0.8C9.6,1.5,9.2,1.2,8.9,1z"/>
<path class="st0" d="M2.4,1c0.3-0.2,0.7-0.4,1-0.5C3,0.6,2.7,0.8,2.4,1z"/>
<path class="st0" d="M4.5,0.1C4.9,0,5.2,0,5.6,0C5.2,0,4.9,0,4.5,0.1z"/>
<path class="st0" d="M3.4,0.4c0.4-0.1,0.7-0.3,1.1-0.3C4.1,0.2,3.7,0.3,3.4,0.4z"/>
<path class="st0" d="M1.4,1.7C1.7,1.5,2,1.2,2.3,1C2,1.2,1.7,1.5,1.4,1.7z"/>
<path class="st0" d="M22,14.2c0.2,0.3,0.4,0.7,0.5,1C22.4,14.9,22.2,14.5,22,14.2z"/>
<path class="st0" d="M6.8,0.1c0.4,0.1,0.7,0.2,1.1,0.3C7.5,0.3,7.1,0.2,6.8,0.1z"/>
<path class="st0" d="M21.2,13.2c0.3,0.3,0.5,0.6,0.8,0.9C21.8,13.8,21.5,13.5,21.2,13.2z"/>
<path class="st0" d="M7.9,0.4c0.4,0.1,0.7,0.3,1,0.5C8.6,0.8,8.2,0.6,7.9,0.4z"/>
<path class="st0" d="M6.8,0.1C6.4,0,6,0,5.6,0l0,0l0,0C6,0,6.4,0,6.8,0.1z"/>
<path class="st0" d="M9.4,33.5c0.1-0.1,0.3-0.2,0.4-0.4l6.4-6.5l-6.4,6.5C9.7,33.3,9.6,33.4,9.4,33.5z"/>
<path class="st0" d="M2.3,1L2.3,1L2.3,1L2.3,1L2.3,1z"/>
<path class="st0" d="M1.4,1.8L1.4,1.8C1.4,1.8,1.4,1.7,1.4,1.8L1.4,1.8L0,3.2l0,0L1.4,1.8z"/>
<path class="st0" d="M3.4,0.4L3.4,0.4L3.4,0.4L3.4,0.4L3.4,0.4z"/>
<path class="st0" d="M4.5,0.1L4.5,0.1L4.5,0.1L4.5,0.1L4.5,0.1z"/>
<path class="st0" d="M5.6,0L5.6,0L5.6,0z"/>
<path class="st0" d="M1.4,33.1L0,31.7l0,0L1.4,33.1c1.2,1.2,2.7,1.8,4.2,1.8c-1.4,0-2.8-0.5-4-1.6C1.6,33.3,1.5,33.2,1.4,33.1z"/>
<path class="st0" d="M-41,0.9c-0.4,0-0.7,0-1.1,0.1l0,0c-0.4,0.1-0.8,0.2-1.1,0.3l0,0c-0.4,0.2-0.7,0.4-1.1,0.6l0,0
	c-0.3,0.2-0.6,0.5-0.9,0.8l0,0L-46.6,4l0.7,0.7l1.4-1.4c0.9-1,2.2-1.5,3.5-1.5c1.4,0,2.6,0.5,3.5,1.5l11.4,11.5
	c0.9,0.9,1.5,2.2,1.5,3.6c0,1.3-0.5,2.6-1.5,3.6l-11.4,11.3c-1.9,2-5.1,2-7.1,0l-1.4-1.4l-0.6,0.7l1.4,1.4c0.1,0.1,0.2,0.1,0.3,0.2
	c1.1,1,2.6,1.6,4,1.6c1.1,0,2.1-0.3,3.1-0.9c0.4-0.2,0.8-0.5,1.2-0.9l11.4-11.5c2.3-2.4,2.3-6.2,0-8.5L-36.7,2.6
	c-0.9-0.9-2-1.5-3.1-1.7l0,0C-40.2,0.9-40.6,0.9-41,0.9z"/>
<path class="st1" d="M-19-1.1c-0.4,0-0.7,0-1.1,0.1l0,0c-0.4,0.1-0.8,0.2-1.1,0.3l0,0c-0.4,0.2-0.7,0.4-1.1,0.6l0,0
	c-0.3,0.2-0.6,0.5-0.9,0.8l0,0l-1.4,1.4l0.7,0.7l1.4-1.4c0.9-1,2.2-1.5,3.5-1.5c1.4,0,2.6,0.5,3.5,1.5l11.4,11.5
	c0.9,0.9,1.5,2.2,1.5,3.6c0,1.3-0.5,2.6-1.5,3.6l-11.4,11.3c-1.9,2-5.1,2-7.1,0l-1.4-1.4l-0.6,0.7l1.4,1.4c0.1,0.1,0.2,0.1,0.3,0.2
	c1.1,1,2.6,1.6,4,1.6c1.1,0,2.1-0.3,3.1-0.9c0.4-0.2,0.8-0.5,1.2-0.9l11.4-11.5c2.3-2.4,2.3-6.2,0-8.5L-14.7,0.7
	c-0.9-0.9-2-1.5-3.1-1.7l0,0C-18.2-1.1-18.6-1.1-19-1.1z"/>
</svg>
